<?xml version="1.0" encoding="UTF-8" standalone="no"?>
<!-- Created with Inkscape (http://www.inkscape.org/) -->

<svg
   width="297mm"
   height="210mm"
   viewBox="0 0 297 210"
   version="1.1"
   id="svg5"
   sodipodi:docname="1.3.svg"
   inkscape:version="1.1.1 (3bf5ae0d25, 2021-09-20)"
   xmlns:inkscape="http://www.inkscape.org/namespaces/inkscape"
   xmlns:sodipodi="http://sodipodi.sourceforge.net/DTD/sodipodi-0.dtd"
   xmlns="http://www.w3.org/2000/svg"
   xmlns:svg="http://www.w3.org/2000/svg"
   xmlns:ns1="http://www.iki.fi/pav/software/textext/">
  <sodipodi:namedview
     id="namedview7"
     pagecolor="#ffffff"
     bordercolor="#666666"
     borderopacity="1.0"
     inkscape:pageshadow="2"
     inkscape:pageopacity="0.0"
     inkscape:pagecheckerboard="0"
     inkscape:document-units="mm"
     showgrid="false"
     inkscape:zoom="1.0316077"
     inkscape:cx="473.5327"
     inkscape:cy="405.67745"
     inkscape:window-width="2560"
     inkscape:window-height="1380"
     inkscape:window-x="1920"
     inkscape:window-y="28"
     inkscape:window-maximized="1"
     inkscape:current-layer="layer1">
    <sodipodi:guide
       position="148.5,0"
       orientation="210.0,0"
       id="guide941" />
    <sodipodi:guide
       position="0,105"
       orientation="0,297.0"
       id="guide943" />
  </sodipodi:namedview>
  <defs
     id="defs2">
    <marker
       style="overflow:visible"
       id="Arrow1Lstart"
       refX="0.0"
       refY="0.0"
       orient="auto"
       inkscape:stockid="Arrow1Lstart"
       inkscape:isstock="true">
      <path
         transform="scale(0.8) translate(12.5,0)"
         style="fill-rule:evenodd;fill:context-stroke;stroke:context-stroke;stroke-width:1.0pt"
         d="M 0.0,0.0 L 5.0,-5.0 L -12.5,0.0 L 5.0,5.0 L 0.0,0.0 z "
         id="path1086" />
    </marker>
    <marker
       style="overflow:visible;"
       id="Arrow1Lend"
       refX="0.0"
       refY="0.0"
       orient="auto"
       inkscape:stockid="Arrow1Lend"
       inkscape:isstock="true">
      <path
         transform="scale(0.8) rotate(180) translate(12.5,0)"
         style="fill-rule:evenodd;fill:context-stroke;stroke:context-stroke;stroke-width:1.0pt;"
         d="M 0.0,0.0 L 5.0,-5.0 L -12.5,0.0 L 5.0,5.0 L 0.0,0.0 z "
         id="path1089" />
    </marker>
  </defs>
  <g
     inkscape:label="图层 1"
     inkscape:groupmode="layer"
     id="layer1">
    <path
       style="fill:none;stroke:#000000;stroke-width:0.665;stroke-linecap:butt;stroke-linejoin:miter;stroke-opacity:1;stroke-miterlimit:4;stroke-dasharray:none;marker-end:url(#Arrow1Lend)"
       d="M 68.318287,105 H 223.97252"
       id="path1002" />
    <path
       style="fill:none;stroke:#000000;stroke-width:0.665;stroke-linecap:butt;stroke-linejoin:miter;stroke-opacity:1;stroke-miterlimit:4;stroke-dasharray:none;marker-start:url(#Arrow1Lstart)"
       d="M 148.5,38.70535 V 183.59231"
       id="path1004" />
    <g
       transform="matrix(1.03714,0,0,1.2111799,213.91971,110.70379)"
       ns1:version="1.6.0"
       ns1:texconverter="xelatex"
       ns1:pdfconverter="inkscape"
       ns1:text="$x$"
       ns1:preamble="/home/sebastian/.config/inkscape/extensions/circuitSymbols/circuitSymbolsPreamble.tex"
       ns1:scale="1.9814431809987803"
       ns1:alignment="middle center"
       ns1:stroke-to-path="0"
       ns1:jacobian_sqrt="0.69901"
       id="g1395">
      <defs
         id="id-40d0f4f1-d67d-4a6e-951b-3e18f31cb1fa">
        <g
           id="id-3634a240-7d58-4ace-963e-9870df5506aa">
          <symbol
             overflow="visible"
             id="id-d3db91a5-d874-48b7-ab7e-d90fb2927819">
            <path
               style="stroke:none;stroke-width:0"
               d=""
               id="id-af5e0c42-a147-40b3-bf8b-f9bad7d5cbdc" />
          </symbol>
          <symbol
             overflow="visible"
             id="id-75273ad6-4441-4ad9-9002-8649b3f64d25">
            <path
               style="stroke:none;stroke-width:0"
               d="M 3.328125,-3.015625 C 3.390625,-3.265625 3.625,-4.1875 4.3125,-4.1875 c 0.046875,0 0.296875,0 0.5,0.125 C 4.53125,-4 4.34375,-3.765625 4.34375,-3.515625 c 0,0.15625 0.109375,0.34375 0.375,0.34375 0.21875,0 0.53125,-0.171875 0.53125,-0.578125 0,-0.515625 -0.578125,-0.65625 -0.921875,-0.65625 -0.578125,0 -0.921875,0.53125 -1.046875,0.75 -0.25,-0.65625 -0.78125,-0.75 -1.078125,-0.75 -1.03125,0 -1.609375,1.28125 -1.609375,1.53125 0,0.109375 0.109375,0.109375 0.125,0.109375 0.078125,0 0.109375,-0.03125 0.125,-0.109375 0.34375,-1.0625 1,-1.3125 1.34375,-1.3125 0.1875,0 0.53125,0.09375 0.53125,0.671875 0,0.3125 -0.171875,0.96875 -0.53125,2.375 -0.15625,0.609375 -0.515625,1.03125 -0.953125,1.03125 -0.0625,0 -0.28125,0 -0.5,-0.125 0.25,-0.0625 0.46875,-0.265625 0.46875,-0.546875 0,-0.265625 -0.21875,-0.34375 -0.359375,-0.34375 -0.3125,0 -0.546875,0.25 -0.546875,0.578125 0,0.453125 0.484375,0.65625 0.921875,0.65625 0.671875,0 1.03125,-0.703125 1.046875,-0.75 0.125,0.359375 0.484375,0.75 1.078125,0.75 1.03125,0 1.59375,-1.28125 1.59375,-1.53125 0,-0.109375 -0.078125,-0.109375 -0.109375,-0.109375 -0.09375,0 -0.109375,0.046875 -0.140625,0.109375 -0.328125,1.078125 -1,1.3125 -1.3125,1.3125 -0.390625,0 -0.546875,-0.3125 -0.546875,-0.65625 0,-0.21875 0.046875,-0.4375 0.15625,-0.875 z m 0,0"
               id="id-499eab2e-e936-41cf-a592-cfef50cb003c" />
          </symbol>
        </g>
      </defs>
      <g
         id="id-82e4e58c-8148-44f6-89fa-f4f3c97a38c0"
         transform="translate(-149.009,-130.359)">
        <g
           style="fill:#000000;fill-opacity:1"
           id="id-0a8172d3-3539-4f19-b751-d543bbef9be2">
          <g
             transform="translate(148.712,134.765)"
             id="g1391">
            <path
               style="stroke:none;stroke-width:0"
               d="M 3.328125,-3.015625 C 3.390625,-3.265625 3.625,-4.1875 4.3125,-4.1875 c 0.046875,0 0.296875,0 0.5,0.125 C 4.53125,-4 4.34375,-3.765625 4.34375,-3.515625 c 0,0.15625 0.109375,0.34375 0.375,0.34375 0.21875,0 0.53125,-0.171875 0.53125,-0.578125 0,-0.515625 -0.578125,-0.65625 -0.921875,-0.65625 -0.578125,0 -0.921875,0.53125 -1.046875,0.75 -0.25,-0.65625 -0.78125,-0.75 -1.078125,-0.75 -1.03125,0 -1.609375,1.28125 -1.609375,1.53125 0,0.109375 0.109375,0.109375 0.125,0.109375 0.078125,0 0.109375,-0.03125 0.125,-0.109375 0.34375,-1.0625 1,-1.3125 1.34375,-1.3125 0.1875,0 0.53125,0.09375 0.53125,0.671875 0,0.3125 -0.171875,0.96875 -0.53125,2.375 -0.15625,0.609375 -0.515625,1.03125 -0.953125,1.03125 -0.0625,0 -0.28125,0 -0.5,-0.125 0.25,-0.0625 0.46875,-0.265625 0.46875,-0.546875 0,-0.265625 -0.21875,-0.34375 -0.359375,-0.34375 -0.3125,0 -0.546875,0.25 -0.546875,0.578125 0,0.453125 0.484375,0.65625 0.921875,0.65625 0.671875,0 1.03125,-0.703125 1.046875,-0.75 0.125,0.359375 0.484375,0.75 1.078125,0.75 1.03125,0 1.59375,-1.28125 1.59375,-1.53125 0,-0.109375 -0.078125,-0.109375 -0.109375,-0.109375 -0.09375,0 -0.109375,0.046875 -0.140625,0.109375 -0.328125,1.078125 -1,1.3125 -1.3125,1.3125 -0.390625,0 -0.546875,-0.3125 -0.546875,-0.65625 0,-0.21875 0.046875,-0.4375 0.15625,-0.875 z m 0,0"
               id="id-287639f5-1759-4f72-935e-e73274edd456" />
          </g>
        </g>
      </g>
    </g>
    <g
       transform="matrix(1.2954928,0,0,1.3595064,154.81751,39.311106)"
       ns1:version="1.6.0"
       ns1:texconverter="xelatex"
       ns1:pdfconverter="inkscape"
       ns1:text="$y$"
       ns1:preamble="/home/sebastian/.config/inkscape/extensions/circuitSymbols/circuitSymbolsPreamble.tex"
       ns1:scale="1.9814431809987803"
       ns1:alignment="middle center"
       ns1:stroke-to-path="0"
       ns1:jacobian_sqrt="0.69901"
       id="g1485">
      <defs
         id="id-5a0f7ab2-aa35-4568-9048-6965c9fe9c0a">
        <g
           id="id-397bc224-d2f2-4d46-9d8e-28e73facaf65">
          <symbol
             overflow="visible"
             id="id-cb0b77cf-f556-497f-af0d-1b4a9e10a49b">
            <path
               style="stroke:none;stroke-width:0"
               d=""
               id="id-4723e329-67af-4bba-9be5-08da501e331a" />
          </symbol>
          <symbol
             overflow="visible"
             id="id-d9e402d5-1688-4d0d-a005-298b42852c14">
            <path
               style="stroke:none;stroke-width:0"
               d="m 4.84375,-3.796875 c 0.046875,-0.140625 0.046875,-0.15625 0.046875,-0.234375 0,-0.171875 -0.140625,-0.265625 -0.296875,-0.265625 -0.09375,0 -0.25,0.0625 -0.34375,0.203125 -0.015625,0.0625 -0.109375,0.359375 -0.140625,0.546875 -0.078125,0.25 -0.140625,0.53125 -0.203125,0.796875 l -0.453125,1.796875 c -0.03125,0.140625 -0.46875,0.84375 -1.125,0.84375 -0.5,0 -0.609375,-0.4375 -0.609375,-0.8125 C 1.71875,-1.375 1.890625,-2 2.21875,-2.875 2.375,-3.28125 2.421875,-3.390625 2.421875,-3.59375 c 0,-0.4375 -0.3125,-0.8125 -0.8125,-0.8125 -0.953125,0 -1.3125,1.453125 -1.3125,1.53125 0,0.109375 0.09375,0.109375 0.109375,0.109375 0.109375,0 0.109375,-0.03125 0.15625,-0.1875 0.28125,-0.9375 0.671875,-1.234375 1.015625,-1.234375 0.078125,0 0.25,0 0.25,0.3125 0,0.25 -0.109375,0.515625 -0.171875,0.703125 -0.40625,1.0625 -0.578125,1.625 -0.578125,2.09375 0,0.890625 0.625,1.1875 1.21875,1.1875 0.390625,0 0.71875,-0.171875 1,-0.453125 -0.125,0.515625 -0.25,1.015625 -0.640625,1.546875 -0.265625,0.328125 -0.640625,0.625 -1.09375,0.625 -0.140625,0 -0.59375,-0.03125 -0.765625,-0.421875 0.15625,0 0.296875,0 0.421875,-0.125 C 1.328125,1.203125 1.421875,1.0625 1.421875,0.875 1.421875,0.5625 1.15625,0.53125 1.0625,0.53125 0.828125,0.53125 0.5,0.6875 0.5,1.171875 c 0,0.5 0.4375,0.875 1.0625,0.875 1.015625,0 2.046875,-0.90625 2.328125,-2.03125 z m 0,0"
               id="id-c698447f-67a7-4936-9d01-037ffc3c30e8" />
          </symbol>
        </g>
      </defs>
      <g
         id="id-dbc3a47b-00e6-4ea5-bd33-99b261c2475f"
         transform="translate(-149.009,-130.359)">
        <g
           style="fill:#000000;fill-opacity:1"
           id="id-7710c254-5a20-4684-83f6-3f7e187fba0c">
          <g
             transform="translate(148.712,134.765)"
             id="g1481">
            <path
               style="stroke:none;stroke-width:0"
               d="m 4.84375,-3.796875 c 0.046875,-0.140625 0.046875,-0.15625 0.046875,-0.234375 0,-0.171875 -0.140625,-0.265625 -0.296875,-0.265625 -0.09375,0 -0.25,0.0625 -0.34375,0.203125 -0.015625,0.0625 -0.109375,0.359375 -0.140625,0.546875 -0.078125,0.25 -0.140625,0.53125 -0.203125,0.796875 l -0.453125,1.796875 c -0.03125,0.140625 -0.46875,0.84375 -1.125,0.84375 -0.5,0 -0.609375,-0.4375 -0.609375,-0.8125 C 1.71875,-1.375 1.890625,-2 2.21875,-2.875 2.375,-3.28125 2.421875,-3.390625 2.421875,-3.59375 c 0,-0.4375 -0.3125,-0.8125 -0.8125,-0.8125 -0.953125,0 -1.3125,1.453125 -1.3125,1.53125 0,0.109375 0.09375,0.109375 0.109375,0.109375 0.109375,0 0.109375,-0.03125 0.15625,-0.1875 0.28125,-0.9375 0.671875,-1.234375 1.015625,-1.234375 0.078125,0 0.25,0 0.25,0.3125 0,0.25 -0.109375,0.515625 -0.171875,0.703125 -0.40625,1.0625 -0.578125,1.625 -0.578125,2.09375 0,0.890625 0.625,1.1875 1.21875,1.1875 0.390625,0 0.71875,-0.171875 1,-0.453125 -0.125,0.515625 -0.25,1.015625 -0.640625,1.546875 -0.265625,0.328125 -0.640625,0.625 -1.09375,0.625 -0.140625,0 -0.59375,-0.03125 -0.765625,-0.421875 0.15625,0 0.296875,0 0.421875,-0.125 C 1.328125,1.203125 1.421875,1.0625 1.421875,0.875 1.421875,0.5625 1.15625,0.53125 1.0625,0.53125 0.828125,0.53125 0.5,0.6875 0.5,1.171875 c 0,0.5 0.4375,0.875 1.0625,0.875 1.015625,0 2.046875,-0.90625 2.328125,-2.03125 z m 0,0"
               id="id-c050c13a-0eeb-47d0-9b0b-69ec8c1e762f" />
          </g>
        </g>
      </g>
    </g>
    <path
       style="fill:none;stroke:#f10000;stroke-width:0.265;stroke-linecap:butt;stroke-linejoin:miter;stroke-opacity:1;stroke-miterlimit:4;stroke-dasharray:none"
       d="M 86.708341,92.377642 C 120.72451,59.926486 164.64064,47.710902 200.21806,47.818116"
       id="path1553"
       sodipodi:nodetypes="cc" />
    <path
       style="fill:none;stroke:#000000;stroke-width:0.665;stroke-linecap:butt;stroke-linejoin:miter;stroke-opacity:1;stroke-miterlimit:4;stroke-dasharray:none;marker-end:url(#Arrow1Lend)"
       d="M 38.352528,111.6751 228.23781,36.845324"
       id="path1823"
       sodipodi:nodetypes="cc" />
    <path
       style="fill:none;stroke:#000000;stroke-width:0.665;stroke-linecap:butt;stroke-linejoin:miter;stroke-opacity:1;stroke-miterlimit:4;stroke-dasharray:none;marker-start:url(#Arrow1Lstart)"
       d="M 35.465353,3.3008792 100.41885,151.91578"
       id="path2013" />
    <g
       transform="matrix(1.2386824,0,0,1.1205484,225.01524,43.697578)"
       ns1:version="1.6.0"
       ns1:texconverter="xelatex"
       ns1:pdfconverter="inkscape"
       ns1:text="$x^{'}$"
       ns1:preamble="/home/sebastian/.config/inkscape/extensions/circuitSymbols/circuitSymbolsPreamble.tex"
       ns1:scale="1.9814431809987803"
       ns1:alignment="middle center"
       ns1:stroke-to-path="0"
       ns1:jacobian_sqrt="0.69901"
       id="g2186">
      <defs
         id="id-b5c6a70c-1d8b-4f31-b610-582729445085">
        <g
           id="id-9ce5a487-30f8-49cd-b3ad-8aac6e82e00f">
          <symbol
             overflow="visible"
             id="id-cee0a762-4b46-4fa3-aa0c-032521f77782">
            <path
               style="stroke:none;stroke-width:0"
               d=""
               id="id-f90b3e94-93d2-4c8f-ac6b-6e76addda1a4" />
          </symbol>
          <symbol
             overflow="visible"
             id="id-a685b667-2cce-42df-b8e2-359c43b5e2cf">
            <path
               style="stroke:none;stroke-width:0"
               d="M 3.328125,-3.015625 C 3.390625,-3.265625 3.625,-4.1875 4.3125,-4.1875 c 0.046875,0 0.296875,0 0.5,0.125 C 4.53125,-4 4.34375,-3.765625 4.34375,-3.515625 c 0,0.15625 0.109375,0.34375 0.375,0.34375 0.21875,0 0.53125,-0.171875 0.53125,-0.578125 0,-0.515625 -0.578125,-0.65625 -0.921875,-0.65625 -0.578125,0 -0.921875,0.53125 -1.046875,0.75 -0.25,-0.65625 -0.78125,-0.75 -1.078125,-0.75 -1.03125,0 -1.609375,1.28125 -1.609375,1.53125 0,0.109375 0.109375,0.109375 0.125,0.109375 0.078125,0 0.109375,-0.03125 0.125,-0.109375 0.34375,-1.0625 1,-1.3125 1.34375,-1.3125 0.1875,0 0.53125,0.09375 0.53125,0.671875 0,0.3125 -0.171875,0.96875 -0.53125,2.375 -0.15625,0.609375 -0.515625,1.03125 -0.953125,1.03125 -0.0625,0 -0.28125,0 -0.5,-0.125 0.25,-0.0625 0.46875,-0.265625 0.46875,-0.546875 0,-0.265625 -0.21875,-0.34375 -0.359375,-0.34375 -0.3125,0 -0.546875,0.25 -0.546875,0.578125 0,0.453125 0.484375,0.65625 0.921875,0.65625 0.671875,0 1.03125,-0.703125 1.046875,-0.75 0.125,0.359375 0.484375,0.75 1.078125,0.75 1.03125,0 1.59375,-1.28125 1.59375,-1.53125 0,-0.109375 -0.078125,-0.109375 -0.109375,-0.109375 -0.09375,0 -0.109375,0.046875 -0.140625,0.109375 -0.328125,1.078125 -1,1.3125 -1.3125,1.3125 -0.390625,0 -0.546875,-0.3125 -0.546875,-0.65625 0,-0.21875 0.046875,-0.4375 0.15625,-0.875 z m 0,0"
               id="id-db89f920-70ab-415f-8507-fd00fada2843" />
          </symbol>
          <symbol
             overflow="visible"
             id="id-29a8efed-fc05-4a4b-ab53-e7696d270399">
            <path
               style="stroke:none;stroke-width:0"
               d=""
               id="id-1a775e12-1c40-48fe-9ff3-6d4fabf48ce8" />
          </symbol>
          <symbol
             overflow="visible"
             id="id-069955a9-099c-4ad3-b325-78d69aeec522">
            <path
               style="stroke:none;stroke-width:0"
               d="m 1.796875,-2.3125 c 0,-0.015625 0.046875,-0.109375 0.046875,-0.1875 0,-0.171875 -0.15625,-0.28125 -0.3125,-0.28125 -0.203125,0 -0.25,0.15625 -0.28125,0.21875 L 0.484375,-0.40625 C 0.46875,-0.34375 0.46875,-0.328125 0.46875,-0.3125 c 0,0.078125 0.203125,0.125 0.203125,0.125 0.046875,0 0.0625,-0.03125 0.09375,-0.09375 z m 0,0"
               id="id-9010f066-e14f-4400-81c6-1ce3f800a41e" />
          </symbol>
        </g>
      </defs>
      <g
         id="id-8ef1d36e-1068-4e00-a37d-ece8bf1e67cc"
         transform="translate(-149.009,-125.362)">
        <g
           style="fill:#000000;fill-opacity:1"
           id="id-22c3a0a2-731e-4018-937c-ed02d35c2dbf">
          <g
             transform="translate(148.712,134.765)"
             id="g2178">
            <path
               style="stroke:none;stroke-width:0"
               d="M 3.328125,-3.015625 C 3.390625,-3.265625 3.625,-4.1875 4.3125,-4.1875 c 0.046875,0 0.296875,0 0.5,0.125 C 4.53125,-4 4.34375,-3.765625 4.34375,-3.515625 c 0,0.15625 0.109375,0.34375 0.375,0.34375 0.21875,0 0.53125,-0.171875 0.53125,-0.578125 0,-0.515625 -0.578125,-0.65625 -0.921875,-0.65625 -0.578125,0 -0.921875,0.53125 -1.046875,0.75 -0.25,-0.65625 -0.78125,-0.75 -1.078125,-0.75 -1.03125,0 -1.609375,1.28125 -1.609375,1.53125 0,0.109375 0.109375,0.109375 0.125,0.109375 0.078125,0 0.109375,-0.03125 0.125,-0.109375 0.34375,-1.0625 1,-1.3125 1.34375,-1.3125 0.1875,0 0.53125,0.09375 0.53125,0.671875 0,0.3125 -0.171875,0.96875 -0.53125,2.375 -0.15625,0.609375 -0.515625,1.03125 -0.953125,1.03125 -0.0625,0 -0.28125,0 -0.5,-0.125 0.25,-0.0625 0.46875,-0.265625 0.46875,-0.546875 0,-0.265625 -0.21875,-0.34375 -0.359375,-0.34375 -0.3125,0 -0.546875,0.25 -0.546875,0.578125 0,0.453125 0.484375,0.65625 0.921875,0.65625 0.671875,0 1.03125,-0.703125 1.046875,-0.75 0.125,0.359375 0.484375,0.75 1.078125,0.75 1.03125,0 1.59375,-1.28125 1.59375,-1.53125 0,-0.109375 -0.078125,-0.109375 -0.109375,-0.109375 -0.09375,0 -0.109375,0.046875 -0.140625,0.109375 -0.328125,1.078125 -1,1.3125 -1.3125,1.3125 -0.390625,0 -0.546875,-0.3125 -0.546875,-0.65625 0,-0.21875 0.046875,-0.4375 0.15625,-0.875 z m 0,0"
               id="id-c9cdd0e4-6c6d-4f92-aded-b3d828777624" />
          </g>
        </g>
        <g
           style="fill:#000000;fill-opacity:1"
           id="id-ff615c35-e32a-4a02-a336-cf2e6fa88bb1">
          <g
             transform="translate(154.406,128.143)"
             id="g2182">
            <path
               style="stroke:none;stroke-width:0"
               d="m 1.796875,-2.3125 c 0,-0.015625 0.046875,-0.109375 0.046875,-0.1875 0,-0.171875 -0.15625,-0.28125 -0.3125,-0.28125 -0.203125,0 -0.25,0.15625 -0.28125,0.21875 L 0.484375,-0.40625 C 0.46875,-0.34375 0.46875,-0.328125 0.46875,-0.3125 c 0,0.078125 0.203125,0.125 0.203125,0.125 0.046875,0 0.0625,-0.03125 0.09375,-0.09375 z m 0,0"
               id="id-e56b1587-08bc-430e-afa0-1728d9233963" />
          </g>
        </g>
      </g>
    </g>
    <g
       transform="matrix(1.2968234,0,0,1.0023489,48.782277,4.6524138)"
       ns1:version="1.6.0"
       ns1:texconverter="xelatex"
       ns1:pdfconverter="inkscape"
       ns1:text="$y^{'}$"
       ns1:preamble="/home/sebastian/.config/inkscape/extensions/circuitSymbols/circuitSymbolsPreamble.tex"
       ns1:scale="1.9814431809987803"
       ns1:alignment="middle center"
       ns1:stroke-to-path="0"
       ns1:jacobian_sqrt="0.69901"
       id="g2355">
      <defs
         id="id-a2e160db-d0b3-4d66-8955-d26815c25d7e">
        <g
           id="id-c2a0875f-94c7-41ac-a6dd-e42534303dcb">
          <symbol
             overflow="visible"
             id="id-6cc89c28-0965-46a3-b14c-70402f0db917">
            <path
               style="stroke:none;stroke-width:0"
               d=""
               id="id-a469c22d-bfce-40fd-b4e9-febf14666fad" />
          </symbol>
          <symbol
             overflow="visible"
             id="id-39b7ffd0-20bb-45b2-bc09-0eed8c0e90f4">
            <path
               style="stroke:none;stroke-width:0"
               d="m 4.84375,-3.796875 c 0.046875,-0.140625 0.046875,-0.15625 0.046875,-0.234375 0,-0.171875 -0.140625,-0.265625 -0.296875,-0.265625 -0.09375,0 -0.25,0.0625 -0.34375,0.203125 -0.015625,0.0625 -0.109375,0.359375 -0.140625,0.546875 -0.078125,0.25 -0.140625,0.53125 -0.203125,0.796875 l -0.453125,1.796875 c -0.03125,0.140625 -0.46875,0.84375 -1.125,0.84375 -0.5,0 -0.609375,-0.4375 -0.609375,-0.8125 C 1.71875,-1.375 1.890625,-2 2.21875,-2.875 2.375,-3.28125 2.421875,-3.390625 2.421875,-3.59375 c 0,-0.4375 -0.3125,-0.8125 -0.8125,-0.8125 -0.953125,0 -1.3125,1.453125 -1.3125,1.53125 0,0.109375 0.09375,0.109375 0.109375,0.109375 0.109375,0 0.109375,-0.03125 0.15625,-0.1875 0.28125,-0.9375 0.671875,-1.234375 1.015625,-1.234375 0.078125,0 0.25,0 0.25,0.3125 0,0.25 -0.109375,0.515625 -0.171875,0.703125 -0.40625,1.0625 -0.578125,1.625 -0.578125,2.09375 0,0.890625 0.625,1.1875 1.21875,1.1875 0.390625,0 0.71875,-0.171875 1,-0.453125 -0.125,0.515625 -0.25,1.015625 -0.640625,1.546875 -0.265625,0.328125 -0.640625,0.625 -1.09375,0.625 -0.140625,0 -0.59375,-0.03125 -0.765625,-0.421875 0.15625,0 0.296875,0 0.421875,-0.125 C 1.328125,1.203125 1.421875,1.0625 1.421875,0.875 1.421875,0.5625 1.15625,0.53125 1.0625,0.53125 0.828125,0.53125 0.5,0.6875 0.5,1.171875 c 0,0.5 0.4375,0.875 1.0625,0.875 1.015625,0 2.046875,-0.90625 2.328125,-2.03125 z m 0,0"
               id="id-2c8211ec-c640-4ea6-abe3-ff56fa395622" />
          </symbol>
          <symbol
             overflow="visible"
             id="id-db5ed5a4-0329-4b5d-a41d-92a5e02875d2">
            <path
               style="stroke:none;stroke-width:0"
               d=""
               id="id-cf591a35-ea4c-4dcd-8c7e-5c12bd8d3b09" />
          </symbol>
          <symbol
             overflow="visible"
             id="id-ad1073e7-f70f-470d-bb5d-765d723bbee4">
            <path
               style="stroke:none;stroke-width:0"
               d="m 1.796875,-2.3125 c 0,-0.015625 0.046875,-0.109375 0.046875,-0.1875 0,-0.171875 -0.15625,-0.28125 -0.3125,-0.28125 -0.203125,0 -0.25,0.15625 -0.28125,0.21875 L 0.484375,-0.40625 C 0.46875,-0.34375 0.46875,-0.328125 0.46875,-0.3125 c 0,0.078125 0.203125,0.125 0.203125,0.125 0.046875,0 0.0625,-0.03125 0.09375,-0.09375 z m 0,0"
               id="id-6306aa89-6c35-4040-80e1-37c578b3d6fb" />
          </symbol>
        </g>
      </defs>
      <g
         id="id-90200618-acbd-4780-8683-e3e43857b1a1"
         transform="translate(-149.009,-125.362)">
        <g
           style="fill:#000000;fill-opacity:1"
           id="id-b78cb4b5-4b66-4d43-81b3-53bbcc1c21bf">
          <g
             transform="translate(148.712,134.765)"
             id="g2347">
            <path
               style="stroke:none;stroke-width:0"
               d="m 4.84375,-3.796875 c 0.046875,-0.140625 0.046875,-0.15625 0.046875,-0.234375 0,-0.171875 -0.140625,-0.265625 -0.296875,-0.265625 -0.09375,0 -0.25,0.0625 -0.34375,0.203125 -0.015625,0.0625 -0.109375,0.359375 -0.140625,0.546875 -0.078125,0.25 -0.140625,0.53125 -0.203125,0.796875 l -0.453125,1.796875 c -0.03125,0.140625 -0.46875,0.84375 -1.125,0.84375 -0.5,0 -0.609375,-0.4375 -0.609375,-0.8125 C 1.71875,-1.375 1.890625,-2 2.21875,-2.875 2.375,-3.28125 2.421875,-3.390625 2.421875,-3.59375 c 0,-0.4375 -0.3125,-0.8125 -0.8125,-0.8125 -0.953125,0 -1.3125,1.453125 -1.3125,1.53125 0,0.109375 0.09375,0.109375 0.109375,0.109375 0.109375,0 0.109375,-0.03125 0.15625,-0.1875 0.28125,-0.9375 0.671875,-1.234375 1.015625,-1.234375 0.078125,0 0.25,0 0.25,0.3125 0,0.25 -0.109375,0.515625 -0.171875,0.703125 -0.40625,1.0625 -0.578125,1.625 -0.578125,2.09375 0,0.890625 0.625,1.1875 1.21875,1.1875 0.390625,0 0.71875,-0.171875 1,-0.453125 -0.125,0.515625 -0.25,1.015625 -0.640625,1.546875 -0.265625,0.328125 -0.640625,0.625 -1.09375,0.625 -0.140625,0 -0.59375,-0.03125 -0.765625,-0.421875 0.15625,0 0.296875,0 0.421875,-0.125 C 1.328125,1.203125 1.421875,1.0625 1.421875,0.875 1.421875,0.5625 1.15625,0.53125 1.0625,0.53125 0.828125,0.53125 0.5,0.6875 0.5,1.171875 c 0,0.5 0.4375,0.875 1.0625,0.875 1.015625,0 2.046875,-0.90625 2.328125,-2.03125 z m 0,0"
               id="id-c72162f3-6d68-4ea7-a2cc-cc1dfab215a9" />
          </g>
        </g>
        <g
           style="fill:#000000;fill-opacity:1"
           id="id-197cf71c-f86b-4f10-8b8c-ae98a7103d5f">
          <g
             transform="translate(153.954,128.143)"
             id="g2351">
            <path
               style="stroke:none;stroke-width:0"
               d="m 1.796875,-2.3125 c 0,-0.015625 0.046875,-0.109375 0.046875,-0.1875 0,-0.171875 -0.15625,-0.28125 -0.3125,-0.28125 -0.203125,0 -0.25,0.15625 -0.28125,0.21875 L 0.484375,-0.40625 C 0.46875,-0.34375 0.46875,-0.328125 0.46875,-0.3125 c 0,0.078125 0.203125,0.125 0.203125,0.125 0.046875,0 0.0625,-0.03125 0.09375,-0.09375 z m 0,0"
               id="id-ad80dc56-b6ba-4574-bff3-56ad7d3aa6cf" />
          </g>
        </g>
      </g>
    </g>
    <g
       transform="matrix(0.69901,0,0,0.69901,89.906112,94.940547)"
       ns1:version="1.6.0"
       ns1:texconverter="xelatex"
       ns1:pdfconverter="inkscape"
       ns1:text="$A$"
       ns1:preamble="/home/sebastian/.config/inkscape/extensions/circuitSymbols/circuitSymbolsPreamble.tex"
       ns1:scale="1.9814431809987803"
       ns1:alignment="middle center"
       ns1:stroke-to-path="0"
       ns1:jacobian_sqrt="0.69901"
       id="g2552">
      <defs
         id="id-48910d8d-3bfe-443f-bd5f-34e8f25b85d0">
        <g
           id="id-5350bc45-aa30-40b8-86cb-be5b2797ef2d">
          <symbol
             overflow="visible"
             id="id-3c3eb11c-c2c9-4cb3-819a-2167491dc0ef">
            <path
               style="stroke:none;stroke-width:0"
               d=""
               id="id-3fccbb18-ab49-436c-898e-38cd5286ee3f" />
          </symbol>
          <symbol
             overflow="visible"
             id="id-ffd5bbb4-13cf-44af-9371-f8e77623b118">
            <path
               style="stroke:none;stroke-width:0"
               d="M 1.78125,-1.140625 C 1.390625,-0.484375 1,-0.34375 0.5625,-0.3125 0.4375,-0.296875 0.34375,-0.296875 0.34375,-0.109375 0.34375,-0.046875 0.40625,0 0.484375,0 0.75,0 1.0625,-0.03125 1.328125,-0.03125 c 0.34375,0 0.6875,0.03125 1,0.03125 0.0625,0 0.1875,0 0.1875,-0.1875 0,-0.109375 -0.078125,-0.125 -0.15625,-0.125 -0.21875,-0.015625 -0.46875,-0.09375 -0.46875,-0.34375 0,-0.125 0.0625,-0.234375 0.140625,-0.375 l 0.765625,-1.265625 h 2.5 c 0.015625,0.203125 0.15625,1.5625 0.15625,1.65625 0,0.296875 -0.515625,0.328125 -0.71875,0.328125 C 4.59375,-0.3125 4.5,-0.3125 4.5,-0.109375 4.5,0 4.609375,0 4.640625,0 5.046875,0 5.46875,-0.03125 5.875,-0.03125 6.125,-0.03125 6.765625,0 7.015625,0 7.0625,0 7.1875,0 7.1875,-0.203125 7.1875,-0.3125 7.09375,-0.3125 6.953125,-0.3125 6.34375,-0.3125 6.34375,-0.375 6.3125,-0.671875 l -0.609375,-6.21875 c -0.015625,-0.203125 -0.015625,-0.25 -0.1875,-0.25 -0.15625,0 -0.203125,0.078125 -0.265625,0.171875 z M 2.984375,-2.609375 4.9375,-5.90625 5.265625,-2.609375 Z m 0,0"
               id="id-1931ff02-6997-489e-971b-9c83d8ba91bc" />
          </symbol>
        </g>
      </defs>
      <g
         id="id-b8d1c080-f311-48e0-baa1-d9539a2ce58d"
         transform="translate(-149.056,-127.624)">
        <g
           style="fill:#000000;fill-opacity:1"
           id="id-566c9af9-05b2-45c8-8ceb-238a6bffbb17">
          <g
             transform="translate(148.712,134.765)"
             id="g2548">
            <path
               style="stroke:none;stroke-width:0"
               d="M 1.78125,-1.140625 C 1.390625,-0.484375 1,-0.34375 0.5625,-0.3125 0.4375,-0.296875 0.34375,-0.296875 0.34375,-0.109375 0.34375,-0.046875 0.40625,0 0.484375,0 0.75,0 1.0625,-0.03125 1.328125,-0.03125 c 0.34375,0 0.6875,0.03125 1,0.03125 0.0625,0 0.1875,0 0.1875,-0.1875 0,-0.109375 -0.078125,-0.125 -0.15625,-0.125 -0.21875,-0.015625 -0.46875,-0.09375 -0.46875,-0.34375 0,-0.125 0.0625,-0.234375 0.140625,-0.375 l 0.765625,-1.265625 h 2.5 c 0.015625,0.203125 0.15625,1.5625 0.15625,1.65625 0,0.296875 -0.515625,0.328125 -0.71875,0.328125 C 4.59375,-0.3125 4.5,-0.3125 4.5,-0.109375 4.5,0 4.609375,0 4.640625,0 5.046875,0 5.46875,-0.03125 5.875,-0.03125 6.125,-0.03125 6.765625,0 7.015625,0 7.0625,0 7.1875,0 7.1875,-0.203125 7.1875,-0.3125 7.09375,-0.3125 6.953125,-0.3125 6.34375,-0.3125 6.34375,-0.375 6.3125,-0.671875 l -0.609375,-6.21875 c -0.015625,-0.203125 -0.015625,-0.25 -0.1875,-0.25 -0.15625,0 -0.203125,0.078125 -0.265625,0.171875 z M 2.984375,-2.609375 4.9375,-5.90625 5.265625,-2.609375 Z m 0,0"
               id="id-b2960900-02cc-47ee-b9e6-624caf031092" />
          </g>
        </g>
      </g>
    </g>
    <g
       transform="matrix(0.69901,0,0,0.69901,198.84337,51.586071)"
       ns1:version="1.6.0"
       ns1:texconverter="xelatex"
       ns1:pdfconverter="inkscape"
       ns1:text="$B$"
       ns1:preamble="/home/sebastian/.config/inkscape/extensions/circuitSymbols/circuitSymbolsPreamble.tex"
       ns1:scale="1.9814431809987803"
       ns1:alignment="middle center"
       ns1:stroke-to-path="0"
       ns1:jacobian_sqrt="0.69901"
       id="g2764">
      <defs
         id="id-201fd8ec-d5ff-46cb-a2a9-08982f3d305c">
        <g
           id="id-44d672b7-ea6a-44dc-840e-a5319d2ec22e">
          <symbol
             overflow="visible"
             id="id-bc4ac916-d6d3-4b49-8444-41042f7f6efe">
            <path
               style="stroke:none;stroke-width:0"
               d=""
               id="id-8f7ebc31-38c5-4843-88ab-a25398b685ab" />
          </symbol>
          <symbol
             overflow="visible"
             id="id-dec3c24d-fb59-403d-b5c9-f2164916a4be">
            <path
               style="stroke:none;stroke-width:0"
               d="M 1.59375,-0.78125 C 1.5,-0.390625 1.46875,-0.3125 0.6875,-0.3125 c -0.171875,0 -0.265625,0 -0.265625,0.203125 C 0.421875,0 0.515625,0 0.6875,0 H 4.25 C 5.828125,0 7,-1.171875 7,-2.15625 7,-2.875 6.421875,-3.453125 5.453125,-3.5625 6.484375,-3.75 7.53125,-4.484375 7.53125,-5.4375 c 0,-0.734375 -0.65625,-1.375 -1.84375,-1.375 H 2.328125 c -0.1875,0 -0.28125,0 -0.28125,0.203125 0,0.109375 0.09375,0.109375 0.28125,0.109375 0.015625,0 0.203125,0 0.375,0.015625 0.171875,0.03125 0.265625,0.03125 0.265625,0.171875 0,0.03125 -0.015625,0.0625 -0.03125,0.1875 z m 1.5,-2.875 0.625,-2.46875 C 3.8125,-6.46875 3.828125,-6.5 4.25,-6.5 h 1.296875 c 0.875,0 1.078125,0.59375 1.078125,1.03125 0,0.875 -0.859375,1.8125 -2.0625,1.8125 z m -0.4375,3.34375 c -0.140625,0 -0.15625,0 -0.21875,0 -0.109375,-0.015625 -0.140625,-0.03125 -0.140625,-0.109375 0,-0.03125 0,-0.046875 0.0625,-0.21875 l 0.6875,-2.78125 h 1.875 c 0.953125,0 1.15625,0.734375 1.15625,1.15625 C 6.078125,-1.28125 5.1875,-0.3125 4,-0.3125 Z m 0,0"
               id="id-ce694258-df1c-4cfc-881c-5a4cf17edf90" />
          </symbol>
        </g>
      </defs>
      <g
         id="id-7d7123e9-6858-4df0-8026-17021fb15e1f"
         transform="translate(-149.134,-127.953)">
        <g
           style="fill:#000000;fill-opacity:1"
           id="id-59279f02-a98e-48e1-abe5-92aca0d249e3">
          <g
             transform="translate(148.712,134.765)"
             id="g2760">
            <path
               style="stroke:none;stroke-width:0"
               d="M 1.59375,-0.78125 C 1.5,-0.390625 1.46875,-0.3125 0.6875,-0.3125 c -0.171875,0 -0.265625,0 -0.265625,0.203125 C 0.421875,0 0.515625,0 0.6875,0 H 4.25 C 5.828125,0 7,-1.171875 7,-2.15625 7,-2.875 6.421875,-3.453125 5.453125,-3.5625 6.484375,-3.75 7.53125,-4.484375 7.53125,-5.4375 c 0,-0.734375 -0.65625,-1.375 -1.84375,-1.375 H 2.328125 c -0.1875,0 -0.28125,0 -0.28125,0.203125 0,0.109375 0.09375,0.109375 0.28125,0.109375 0.015625,0 0.203125,0 0.375,0.015625 0.171875,0.03125 0.265625,0.03125 0.265625,0.171875 0,0.03125 -0.015625,0.0625 -0.03125,0.1875 z m 1.5,-2.875 0.625,-2.46875 C 3.8125,-6.46875 3.828125,-6.5 4.25,-6.5 h 1.296875 c 0.875,0 1.078125,0.59375 1.078125,1.03125 0,0.875 -0.859375,1.8125 -2.0625,1.8125 z m -0.4375,3.34375 c -0.140625,0 -0.15625,0 -0.21875,0 -0.109375,-0.015625 -0.140625,-0.03125 -0.140625,-0.109375 0,-0.03125 0,-0.046875 0.0625,-0.21875 l 0.6875,-2.78125 h 1.875 c 0.953125,0 1.15625,0.734375 1.15625,1.15625 C 6.078125,-1.28125 5.1875,-0.3125 4,-0.3125 Z m 0,0"
               id="id-b5f6e1fa-41bf-46ff-8f7b-8f5f80fae4bd" />
          </g>
        </g>
      </g>
    </g>
  </g>
</svg>
