<?xml version="1.0" encoding="UTF-8" standalone="no"?>
<!-- Created with Inkscape (http://www.inkscape.org/) -->

<svg
   width="297mm"
   height="210mm"
   viewBox="0 0 297 210"
   version="1.1"
   id="svg5"
   sodipodi:docname="1.7.svg"
   inkscape:version="1.1.1 (3bf5ae0d25, 2021-09-20)"
   xmlns:inkscape="http://www.inkscape.org/namespaces/inkscape"
   xmlns:sodipodi="http://sodipodi.sourceforge.net/DTD/sodipodi-0.dtd"
   xmlns="http://www.w3.org/2000/svg"
   xmlns:svg="http://www.w3.org/2000/svg"
   xmlns:ns1="http://www.iki.fi/pav/software/textext/">
  <sodipodi:namedview
     id="namedview7"
     pagecolor="#ffffff"
     bordercolor="#666666"
     borderopacity="1.0"
     inkscape:pageshadow="2"
     inkscape:pageopacity="0.0"
     inkscape:pagecheckerboard="0"
     inkscape:document-units="mm"
     showgrid="false"
     inkscape:zoom="1.0102644"
     inkscape:cx="479.5774"
     inkscape:cy="470.66885"
     inkscape:window-width="2560"
     inkscape:window-height="1380"
     inkscape:window-x="1920"
     inkscape:window-y="28"
     inkscape:window-maximized="1"
     inkscape:current-layer="g1282">
    <sodipodi:guide
       position="148.5,0"
       orientation="210.0,0"
       id="guide828" />
    <sodipodi:guide
       position="0,105"
       orientation="0,297.0"
       id="guide830" />
  </sodipodi:namedview>
  <defs
     id="defs2">
    <marker
       style="overflow:visible;"
       id="Arrow1Lend"
       refX="0.0"
       refY="0.0"
       orient="auto"
       inkscape:stockid="Arrow1Lend"
       inkscape:isstock="true">
      <path
         transform="scale(0.8) rotate(180) translate(12.5,0)"
         style="fill-rule:evenodd;fill:context-stroke;stroke:context-stroke;stroke-width:1.0pt;"
         d="M 0.0,0.0 L 5.0,-5.0 L -12.5,0.0 L 5.0,5.0 L 0.0,0.0 z "
         id="path976" />
    </marker>
    <marker
       style="overflow:visible"
       id="Arrow1Lstart"
       refX="0.0"
       refY="0.0"
       orient="auto"
       inkscape:stockid="Arrow1Lstart"
       inkscape:isstock="true">
      <path
         transform="scale(0.8) translate(12.5,0)"
         style="fill-rule:evenodd;fill:context-stroke;stroke:context-stroke;stroke-width:1.0pt"
         d="M 0.0,0.0 L 5.0,-5.0 L -12.5,0.0 L 5.0,5.0 L 0.0,0.0 z "
         id="path973" />
    </marker>
  </defs>
  <g
     inkscape:label="图层 1"
     inkscape:groupmode="layer"
     id="layer1">
    <path
       style="fill:none;stroke:#000000;stroke-width:0.565;stroke-linecap:butt;stroke-linejoin:miter;stroke-opacity:1;stroke-miterlimit:4;stroke-dasharray:none;marker-start:url(#Arrow1Lstart)"
       d="M 148.5,42.675029 V 174.14163"
       id="path889" />
    <path
       style="fill:none;stroke:#000000;stroke-width:0.565;stroke-linecap:butt;stroke-linejoin:miter;stroke-opacity:1;marker-end:url(#Arrow1Lend);stroke-miterlimit:4.0999999;stroke-dasharray:none"
       d="M 83.184565,105 H 212.0947"
       id="path891" />
    <g
       transform="matrix(1.17813 0 0 1.17813 122.829 120.26)"
       ns1:version="1.6.0"
       ns1:texconverter="xelatex"
       ns1:pdfconverter="inkscape"
       ns1:text="$O$"
       ns1:preamble="/home/sebastian/.config/inkscape/extensions/circuitSymbols/circuitSymbolsPreamble.tex"
       ns1:scale="3.3395928901228187"
       ns1:alignment="middle center"
       ns1:stroke-to-path="0"
       ns1:jacobian_sqrt="1.17813"
       id="g1282">
      <defs
         id="id-2e8b3f57-3937-4214-b1c1-b22974309c25">
        <g
           id="id-05204de3-546c-469d-8b5c-40ec4e65a436">
          <symbol
             overflow="visible"
             id="id-b116b543-3ca1-42be-ba63-d0e8b11ed225">
            <path
               style="stroke:none;stroke-width:0"
               d=""
               id="id-2077cee2-6858-4677-809c-e87355ea5b68" />
          </symbol>
          <symbol
             overflow="visible"
             id="id-8db6f9cc-7801-4a11-863f-15cc0898eea9">
            <path
               style="stroke:none;stroke-width:0"
               d="m 7.375,-4.34375 c 0,-1.609375 -1.0625,-2.6875 -2.546875,-2.6875 -2.140625,0 -4.34375,2.265625 -4.34375,4.59375 0,1.65625 1.125,2.65625 2.5625,2.65625 2.109375,0 4.328125,-2.1875 4.328125,-4.5625 z m -4.28125,4.296875 c -0.984375,0 -1.671875,-0.796875 -1.671875,-2.109375 0,-0.453125 0.140625,-1.90625 0.90625,-3.0625 0.6875,-1.046875 1.65625,-1.5625 2.453125,-1.5625 0.8125,0 1.703125,0.5625 1.703125,2.046875 0,0.71875 -0.265625,2.265625 -1.25,3.5 C 4.75,-0.625 3.9375,-0.046875 3.09375,-0.046875 Z m 0,0"
               id="id-218631cf-b5a5-4e95-a07e-1f251b8d7f45" />
          </symbol>
        </g>
      </defs>
      <g
         id="id-d55a00c2-9c56-485e-930d-e25b98d0d5cb"
         transform="translate(-149.196, -127.734)">
        <g
           style="fill:#000000;fill-opacity:1"
           id="id-9b36ccbf-7337-4c0d-b02c-07d06a4b0a25"
           transform="translate(9.8880512,-9.893207)">
          <g
             transform="translate(148.712,134.765)"
             id="g1278">
            <path
               style="stroke:none;stroke-width:0"
               d="m 7.375,-4.34375 c 0,-1.609375 -1.0625,-2.6875 -2.546875,-2.6875 -2.140625,0 -4.34375,2.265625 -4.34375,4.59375 0,1.65625 1.125,2.65625 2.5625,2.65625 2.109375,0 4.328125,-2.1875 4.328125,-4.5625 z m -4.28125,4.296875 c -0.984375,0 -1.671875,-0.796875 -1.671875,-2.109375 0,-0.453125 0.140625,-1.90625 0.90625,-3.0625 0.6875,-1.046875 1.65625,-1.5625 2.453125,-1.5625 0.8125,0 1.703125,0.5625 1.703125,2.046875 0,0.71875 -0.265625,2.265625 -1.25,3.5 C 4.75,-0.625 3.9375,-0.046875 3.09375,-0.046875 Z m 0,0"
               id="id-427c9bbd-b949-48f4-884f-6234c3feaa96" />
          </g>
        </g>
        <g
           transform="translate(230.53871,114.43777)"
           ns1:version="1.6.0"
           ns1:texconverter="xelatex"
           ns1:pdfconverter="inkscape"
           ns1:text="$x$"
           ns1:preamble="/home/sebastian/.config/inkscape/extensions/circuitSymbols/circuitSymbolsPreamble.tex"
           ns1:scale="3.3395928901228187"
           ns1:alignment="middle center"
           ns1:stroke-to-path="0"
           ns1:jacobian_sqrt="1.0"
           id="g1370">
          <defs
             id="id-107444eb-6ced-44f5-9992-97926dcc2642">
            <g
               id="id-e0d59b4b-0db2-41fa-8a4e-2c632a436114">
              <symbol
                 overflow="visible"
                 id="id-6e2ed51f-f713-490c-9f30-97fbf88140dd">
                <path
                   style="stroke:none;stroke-width:0"
                   d=""
                   id="id-e424d03b-d276-4e32-8d5e-a38ad5b814c7" />
              </symbol>
              <symbol
                 overflow="visible"
                 id="id-db2aba83-b549-4b88-92b8-02e32f920ff3">
                <path
                   style="stroke:none;stroke-width:0"
                   d="M 3.328125,-3.015625 C 3.390625,-3.265625 3.625,-4.1875 4.3125,-4.1875 c 0.046875,0 0.296875,0 0.5,0.125 C 4.53125,-4 4.34375,-3.765625 4.34375,-3.515625 c 0,0.15625 0.109375,0.34375 0.375,0.34375 0.21875,0 0.53125,-0.171875 0.53125,-0.578125 0,-0.515625 -0.578125,-0.65625 -0.921875,-0.65625 -0.578125,0 -0.921875,0.53125 -1.046875,0.75 -0.25,-0.65625 -0.78125,-0.75 -1.078125,-0.75 -1.03125,0 -1.609375,1.28125 -1.609375,1.53125 0,0.109375 0.109375,0.109375 0.125,0.109375 0.078125,0 0.109375,-0.03125 0.125,-0.109375 0.34375,-1.0625 1,-1.3125 1.34375,-1.3125 0.1875,0 0.53125,0.09375 0.53125,0.671875 0,0.3125 -0.171875,0.96875 -0.53125,2.375 -0.15625,0.609375 -0.515625,1.03125 -0.953125,1.03125 -0.0625,0 -0.28125,0 -0.5,-0.125 0.25,-0.0625 0.46875,-0.265625 0.46875,-0.546875 0,-0.265625 -0.21875,-0.34375 -0.359375,-0.34375 -0.3125,0 -0.546875,0.25 -0.546875,0.578125 0,0.453125 0.484375,0.65625 0.921875,0.65625 0.671875,0 1.03125,-0.703125 1.046875,-0.75 0.125,0.359375 0.484375,0.75 1.078125,0.75 1.03125,0 1.59375,-1.28125 1.59375,-1.53125 0,-0.109375 -0.078125,-0.109375 -0.109375,-0.109375 -0.09375,0 -0.109375,0.046875 -0.140625,0.109375 -0.328125,1.078125 -1,1.3125 -1.3125,1.3125 -0.390625,0 -0.546875,-0.3125 -0.546875,-0.65625 0,-0.21875 0.046875,-0.4375 0.15625,-0.875 z m 0,0"
                   id="id-7e058ffa-478b-41df-a30d-96b6325774d3" />
              </symbol>
            </g>
          </defs>
          <g
             id="id-ee10f3c3-adaf-47e9-b041-c07713b9113e"
             transform="translate(-149.009,-130.359)">
            <g
               style="fill:#000000;fill-opacity:1"
               id="id-c25ec9f1-273f-4c37-89dc-3b2894501354">
              <g
                 transform="translate(148.712,134.765)"
                 id="g1366">
                <path
                   style="stroke:none;stroke-width:0"
                   d="M 3.328125,-3.015625 C 3.390625,-3.265625 3.625,-4.1875 4.3125,-4.1875 c 0.046875,0 0.296875,0 0.5,0.125 C 4.53125,-4 4.34375,-3.765625 4.34375,-3.515625 c 0,0.15625 0.109375,0.34375 0.375,0.34375 0.21875,0 0.53125,-0.171875 0.53125,-0.578125 0,-0.515625 -0.578125,-0.65625 -0.921875,-0.65625 -0.578125,0 -0.921875,0.53125 -1.046875,0.75 -0.25,-0.65625 -0.78125,-0.75 -1.078125,-0.75 -1.03125,0 -1.609375,1.28125 -1.609375,1.53125 0,0.109375 0.109375,0.109375 0.125,0.109375 0.078125,0 0.109375,-0.03125 0.125,-0.109375 0.34375,-1.0625 1,-1.3125 1.34375,-1.3125 0.1875,0 0.53125,0.09375 0.53125,0.671875 0,0.3125 -0.171875,0.96875 -0.53125,2.375 -0.15625,0.609375 -0.515625,1.03125 -0.953125,1.03125 -0.0625,0 -0.28125,0 -0.5,-0.125 0.25,-0.0625 0.46875,-0.265625 0.46875,-0.546875 0,-0.265625 -0.21875,-0.34375 -0.359375,-0.34375 -0.3125,0 -0.546875,0.25 -0.546875,0.578125 0,0.453125 0.484375,0.65625 0.921875,0.65625 0.671875,0 1.03125,-0.703125 1.046875,-0.75 0.125,0.359375 0.484375,0.75 1.078125,0.75 1.03125,0 1.59375,-1.28125 1.59375,-1.53125 0,-0.109375 -0.078125,-0.109375 -0.109375,-0.109375 -0.09375,0 -0.109375,0.046875 -0.140625,0.109375 -0.328125,1.078125 -1,1.3125 -1.3125,1.3125 -0.390625,0 -0.546875,-0.3125 -0.546875,-0.65625 0,-0.21875 0.046875,-0.4375 0.15625,-0.875 z m 0,0"
                   id="id-98a29d2a-b4e8-4f7b-9811-a18696b61c40" />
              </g>
            </g>
          </g>
        </g>
        <g
           transform="translate(176.13898,51.238613)"
           ns1:version="1.6.0"
           ns1:texconverter="xelatex"
           ns1:pdfconverter="inkscape"
           ns1:text="$y$"
           ns1:preamble="/home/sebastian/.config/inkscape/extensions/circuitSymbols/circuitSymbolsPreamble.tex"
           ns1:scale="3.3395928901228187"
           ns1:alignment="middle center"
           ns1:stroke-to-path="0"
           ns1:jacobian_sqrt="1.0"
           id="g1482">
          <defs
             id="id-ceee045c-5b3e-4aa9-ad7c-a760e4196b3a">
            <g
               id="id-0835f740-1276-4b75-81bc-a3a4bcf0e2ae">
              <symbol
                 overflow="visible"
                 id="id-fa40d9be-0059-43e9-93c4-a130ee847569">
                <path
                   style="stroke:none;stroke-width:0"
                   d=""
                   id="id-92e0f5aa-6537-4660-ae9c-918d792fd110" />
              </symbol>
              <symbol
                 overflow="visible"
                 id="id-97dee802-d4a3-412f-bda9-2866d0bb7a0b">
                <path
                   style="stroke:none;stroke-width:0"
                   d="m 4.84375,-3.796875 c 0.046875,-0.140625 0.046875,-0.15625 0.046875,-0.234375 0,-0.171875 -0.140625,-0.265625 -0.296875,-0.265625 -0.09375,0 -0.25,0.0625 -0.34375,0.203125 -0.015625,0.0625 -0.109375,0.359375 -0.140625,0.546875 -0.078125,0.25 -0.140625,0.53125 -0.203125,0.796875 l -0.453125,1.796875 c -0.03125,0.140625 -0.46875,0.84375 -1.125,0.84375 -0.5,0 -0.609375,-0.4375 -0.609375,-0.8125 C 1.71875,-1.375 1.890625,-2 2.21875,-2.875 2.375,-3.28125 2.421875,-3.390625 2.421875,-3.59375 c 0,-0.4375 -0.3125,-0.8125 -0.8125,-0.8125 -0.953125,0 -1.3125,1.453125 -1.3125,1.53125 0,0.109375 0.09375,0.109375 0.109375,0.109375 0.109375,0 0.109375,-0.03125 0.15625,-0.1875 0.28125,-0.9375 0.671875,-1.234375 1.015625,-1.234375 0.078125,0 0.25,0 0.25,0.3125 0,0.25 -0.109375,0.515625 -0.171875,0.703125 -0.40625,1.0625 -0.578125,1.625 -0.578125,2.09375 0,0.890625 0.625,1.1875 1.21875,1.1875 0.390625,0 0.71875,-0.171875 1,-0.453125 -0.125,0.515625 -0.25,1.015625 -0.640625,1.546875 -0.265625,0.328125 -0.640625,0.625 -1.09375,0.625 -0.140625,0 -0.59375,-0.03125 -0.765625,-0.421875 0.15625,0 0.296875,0 0.421875,-0.125 C 1.328125,1.203125 1.421875,1.0625 1.421875,0.875 1.421875,0.5625 1.15625,0.53125 1.0625,0.53125 0.828125,0.53125 0.5,0.6875 0.5,1.171875 c 0,0.5 0.4375,0.875 1.0625,0.875 1.015625,0 2.046875,-0.90625 2.328125,-2.03125 z m 0,0"
                   id="id-bd55b29e-87d2-40a7-80c6-fb468bf9f8dd" />
              </symbol>
            </g>
          </defs>
          <g
             id="id-21ce4500-6fef-4fe7-ac96-28bd78a6d26a"
             transform="translate(-149.009,-130.359)">
            <g
               style="fill:#000000;fill-opacity:1"
               id="id-def76688-81a2-48de-a543-26ab8642db9e">
              <g
                 transform="translate(148.712,134.765)"
                 id="g1478">
                <path
                   style="stroke:none;stroke-width:0"
                   d="m 4.84375,-3.796875 c 0.046875,-0.140625 0.046875,-0.15625 0.046875,-0.234375 0,-0.171875 -0.140625,-0.265625 -0.296875,-0.265625 -0.09375,0 -0.25,0.0625 -0.34375,0.203125 -0.015625,0.0625 -0.109375,0.359375 -0.140625,0.546875 -0.078125,0.25 -0.140625,0.53125 -0.203125,0.796875 l -0.453125,1.796875 c -0.03125,0.140625 -0.46875,0.84375 -1.125,0.84375 -0.5,0 -0.609375,-0.4375 -0.609375,-0.8125 C 1.71875,-1.375 1.890625,-2 2.21875,-2.875 2.375,-3.28125 2.421875,-3.390625 2.421875,-3.59375 c 0,-0.4375 -0.3125,-0.8125 -0.8125,-0.8125 -0.953125,0 -1.3125,1.453125 -1.3125,1.53125 0,0.109375 0.09375,0.109375 0.109375,0.109375 0.109375,0 0.109375,-0.03125 0.15625,-0.1875 0.28125,-0.9375 0.671875,-1.234375 1.015625,-1.234375 0.078125,0 0.25,0 0.25,0.3125 0,0.25 -0.109375,0.515625 -0.171875,0.703125 -0.40625,1.0625 -0.578125,1.625 -0.578125,2.09375 0,0.890625 0.625,1.1875 1.21875,1.1875 0.390625,0 0.71875,-0.171875 1,-0.453125 -0.125,0.515625 -0.25,1.015625 -0.640625,1.546875 -0.265625,0.328125 -0.640625,0.625 -1.09375,0.625 -0.140625,0 -0.59375,-0.03125 -0.765625,-0.421875 0.15625,0 0.296875,0 0.421875,-0.125 C 1.328125,1.203125 1.421875,1.0625 1.421875,0.875 1.421875,0.5625 1.15625,0.53125 1.0625,0.53125 0.828125,0.53125 0.5,0.6875 0.5,1.171875 c 0,0.5 0.4375,0.875 1.0625,0.875 1.015625,0 2.046875,-0.90625 2.328125,-2.03125 z m 0,0"
                   id="id-2a666da7-449e-41b8-881e-62cc7ce4a0ea" />
              </g>
            </g>
          </g>
        </g>
        <path
           style="fill:none;stroke:#000000;stroke-width:0.224579px;stroke-linecap:butt;stroke-linejoin:miter;stroke-opacity:1"
           d="M 144.32457,100.68028 C 157.3612,81.642491 170.98562,73.922034 208.85662,70.360907"
           id="path1552"
           sodipodi:nodetypes="cc" />
        <path
           style="fill:none;stroke:#000000;stroke-width:0.22573601;stroke-linecap:butt;stroke-linejoin:miter;stroke-opacity:1;stroke-miterlimit:4;stroke-dasharray:1.8058881,1.8058881;stroke-dashoffset:0"
           d="m 133.51719,101.35668 87.524,-58.515733"
           id="path1724" />
        <path
           style="fill:none;stroke:#000000;stroke-width:0.224579px;stroke-linecap:butt;stroke-linejoin:miter;stroke-opacity:1"
           d="M 139.64219,87.809536 C 152.67882,68.77175 166.30324,61.051293 204.17424,57.490166"
           id="path1552-6"
           sodipodi:nodetypes="cc" />
        <path
           style="fill:none;stroke:#000000;stroke-width:0.225736;stroke-linecap:butt;stroke-linejoin:miter;stroke-miterlimit:4;stroke-dasharray:1.80589, 1.80589;stroke-dashoffset:0;stroke-opacity:1"
           d="m 128.83481,88.485936 87.524,-58.51573"
           id="path1724-5" />
        <path
           style="fill:none;stroke:#000000;stroke-width:0.224579px;stroke-linecap:butt;stroke-linejoin:miter;stroke-opacity:1"
           d="m 145.82418,158.15503 c 13.03663,-19.03779 26.66105,-26.75825 64.53205,-30.31937"
           id="path1552-4"
           sodipodi:nodetypes="cc" />
        <path
           style="fill:none;stroke:#000000;stroke-width:0.225736;stroke-linecap:butt;stroke-linejoin:miter;stroke-miterlimit:4;stroke-dasharray:1.80589, 1.80589;stroke-dashoffset:0;stroke-opacity:1"
           d="m 135.0168,158.83143 87.524,-58.51573"
           id="path1724-2" />
      </g>
      <path
         style="fill:none;stroke:#f60000;stroke-width:0.22457901;stroke-linecap:butt;stroke-linejoin:miter;stroke-opacity:1;stroke-miterlimit:4;stroke-dasharray:0.89831604, 0.89831604;stroke-dashoffset:0"
         d="m 11.872181,-89.162509 0.196844,153.065321 v 0"
         id="path2008" />
    </g>
  </g>
</svg>
